HIERARCHY
ROOT root
{
	OFFSET 0.000000 0.054209 0.736571
	CHANNELS 6 Xposition Yposition Zposition Xrotation Yrotation Zrotation
	JOINT spine04
	{
		OFFSET 0.000000 -0.030951 0.078753
		CHANNELS 6 Xposition Yposition Zposition Xrotation Yrotation Zrotation
		JOINT spine02
		{
			OFFSET 0.000000 -0.000238 0.104623
			CHANNELS 6 Xposition Yposition Zposition Xrotation Yrotation Zrotation
			JOINT spine01
			{
				OFFSET 0.000000 0.017421 0.109292
				CHANNELS 3 Xrotation Yrotation Zrotation
				JOINT neck01
				{
					OFFSET 0.000000 -0.049753 0.167208
					CHANNELS 6 Xposition Yposition Zposition Xrotation Yrotation Zrotation
					JOINT neck02
					{
						OFFSET 0.000000 0.005512 0.021216
						CHANNELS 3 Xrotation Yrotation Zrotation
						JOINT jaw
						{
							OFFSET 0.000000 -0.043572 0.063270
							CHANNELS 6 Xposition Yposition Zposition Xrotation Yrotation Zrotation
							End Site
							{
								OFFSET 0.000000 -0.008974 0.006557
							}
						}
						JOINT eye.L
						{
							OFFSET 0.023674 -0.098121 0.090003
							CHANNELS 3 Xrotation Yrotation Zrotation
							End Site
							{
								OFFSET 0.001819 -0.030370 -0.004421
							}
						}
						JOINT orbicularis03.L
						{
							OFFSET 0.023674 -0.098121 0.090003
							CHANNELS 3 Xrotation Yrotation Zrotation
							End Site
							{
								OFFSET 0.001761 -0.029014 0.005250
							}
						}
						JOINT eye.R
						{
							OFFSET -0.023675 -0.098122 0.090003
							CHANNELS 3 Xrotation Yrotation Zrotation
							End Site
							{
								OFFSET -0.001819 -0.030370 -0.004421
							}
						}
						JOINT orbicularis03.R
						{
							OFFSET -0.023675 -0.098122 0.090003
							CHANNELS 3 Xrotation Yrotation Zrotation
							End Site
							{
								OFFSET -0.001761 -0.029014 0.005250
							}
						}
						End Site
						{
							OFFSET 0.000000 0.005512 0.021217
						}
					}
				}
				JOINT clavicle.R
				{
					OFFSET -0.018367 -0.058464 0.107155
					CHANNELS 6 Xposition Yposition Zposition Xrotation Yrotation Zrotation
					JOINT upperarm01.R
					{
						OFFSET -0.132020 0.003642 -0.024313
						CHANNELS 6 Xposition Yposition Zposition Xrotation Yrotation Zrotation
						JOINT lowerarm01.R
						{
							OFFSET -0.133637 0.001770 -0.153088
							CHANNELS 6 Xposition Yposition Zposition Xrotation Yrotation Zrotation
							JOINT wrist.R
							{
								OFFSET -0.108575 -0.154815 -0.103768
								CHANNELS 6 Xposition Yposition Zposition Xrotation Yrotation Zrotation
								JOINT finger2-1.R
								{
									OFFSET -0.024321 -0.084906 -0.032804
									CHANNELS 3 Xrotation Yrotation Zrotation
									JOINT finger2-2.R
									{
										OFFSET -0.002928 -0.018838 -0.012653
										CHANNELS 3 Xrotation Yrotation Zrotation
										JOINT finger2-3.R
										{
											OFFSET 0.000460 -0.015088 -0.013862
											CHANNELS 3 Xrotation Yrotation Zrotation
											End Site
											{
												OFFSET 0.003042 -0.016083 -0.016987
											}
										}
									}
								}
								JOINT finger3-1.R
								{
									OFFSET -0.038828 -0.069770 -0.043126
									CHANNELS 3 Xrotation Yrotation Zrotation
									JOINT finger3-2.R
									{
										OFFSET -0.006387 -0.018854 -0.022184
										CHANNELS 3 Xrotation Yrotation Zrotation
										JOINT finger3-3.R
										{
											OFFSET -0.002379 -0.015757 -0.018305
											CHANNELS 3 Xrotation Yrotation Zrotation
											End Site
											{
												OFFSET 0.000156 -0.013802 -0.019326
											}
										}
									}
								}
								JOINT finger4-1.R
								{
									OFFSET -0.045586 -0.054771 -0.050312
									CHANNELS 3 Xrotation Yrotation Zrotation
									JOINT finger4-2.R
									{
										OFFSET -0.008217 -0.013209 -0.021152
										CHANNELS 3 Xrotation Yrotation Zrotation
										JOINT finger4-3.R
										{
											OFFSET -0.003838 -0.011894 -0.018031
											CHANNELS 3 Xrotation Yrotation Zrotation
											End Site
											{
												OFFSET -0.002024 -0.010563 -0.020894
											}
										}
									}
								}
								JOINT finger5-1.R
								{
									OFFSET -0.046820 -0.037780 -0.058682
									CHANNELS 3 Xrotation Yrotation Zrotation
									JOINT finger5-2.R
									{
										OFFSET -0.005234 -0.007322 -0.016539
										CHANNELS 3 Xrotation Yrotation Zrotation
										JOINT finger5-3.R
										{
											OFFSET -0.001524 -0.005483 -0.012548
											CHANNELS 3 Xrotation Yrotation Zrotation
											End Site
											{
												OFFSET -0.002248 -0.006725 -0.016024
											}
										}
									}
								}
								JOINT finger1-1.R
								{
									OFFSET -0.000927 -0.039280 -0.005363
									CHANNELS 3 Xrotation Yrotation Zrotation
									JOINT finger1-2.R
									{
										OFFSET 0.018386 -0.018805 -0.006895
										CHANNELS 3 Xrotation Yrotation Zrotation
										JOINT finger1-3.R
										{
											OFFSET 0.010991 -0.028095 -0.011249
											CHANNELS 3 Xrotation Yrotation Zrotation
											End Site
											{
												OFFSET 0.004839 -0.019091 -0.014527
											}
										}
									}
								}
							}
						}
					}
				}
				JOINT clavicle.L
				{
					OFFSET 0.018367 -0.058464 0.107155
					CHANNELS 6 Xposition Yposition Zposition Xrotation Yrotation Zrotation
					JOINT upperarm01.L
					{
						OFFSET 0.132020 0.003642 -0.024313
						CHANNELS 6 Xposition Yposition Zposition Xrotation Yrotation Zrotation
						JOINT lowerarm01.L
						{
							OFFSET 0.133638 0.001770 -0.153088
							CHANNELS 6 Xposition Yposition Zposition Xrotation Yrotation Zrotation
							JOINT wrist.L
							{
								OFFSET 0.108574 -0.154814 -0.103768
								CHANNELS 6 Xposition Yposition Zposition Xrotation Yrotation Zrotation
								JOINT finger2-1.L
								{
									OFFSET 0.024321 -0.084906 -0.032804
									CHANNELS 3 Xrotation Yrotation Zrotation
									JOINT finger2-2.L
									{
										OFFSET 0.002927 -0.018838 -0.012653
										CHANNELS 3 Xrotation Yrotation Zrotation
										JOINT finger2-3.L
										{
											OFFSET -0.000460 -0.015088 -0.013862
											CHANNELS 3 Xrotation Yrotation Zrotation
											End Site
											{
												OFFSET -0.003042 -0.016083 -0.016987
											}
										}
									}
								}
								JOINT finger3-1.L
								{
									OFFSET 0.038828 -0.069770 -0.043127
									CHANNELS 3 Xrotation Yrotation Zrotation
									JOINT finger3-2.L
									{
										OFFSET 0.006387 -0.018854 -0.022184
										CHANNELS 3 Xrotation Yrotation Zrotation
										JOINT finger3-3.L
										{
											OFFSET 0.002379 -0.015757 -0.018305
											CHANNELS 3 Xrotation Yrotation Zrotation
											End Site
											{
												OFFSET -0.000156 -0.013802 -0.019326
											}
										}
									}
								}
								JOINT finger4-1.L
								{
									OFFSET 0.045586 -0.054771 -0.050312
									CHANNELS 3 Xrotation Yrotation Zrotation
									JOINT finger4-2.L
									{
										OFFSET 0.008217 -0.013209 -0.021152
										CHANNELS 3 Xrotation Yrotation Zrotation
										JOINT finger4-3.L
										{
											OFFSET 0.003838 -0.011894 -0.018031
											CHANNELS 3 Xrotation Yrotation Zrotation
											End Site
											{
												OFFSET 0.002024 -0.010563 -0.020894
											}
										}
									}
								}
								JOINT finger5-1.L
								{
									OFFSET 0.046820 -0.037780 -0.058682
									CHANNELS 3 Xrotation Yrotation Zrotation
									JOINT finger5-2.L
									{
										OFFSET 0.005233 -0.007322 -0.016539
										CHANNELS 3 Xrotation Yrotation Zrotation
										JOINT finger5-3.L
										{
											OFFSET 0.001524 -0.005484 -0.012548
											CHANNELS 3 Xrotation Yrotation Zrotation
											End Site
											{
												OFFSET 0.002248 -0.006725 -0.016023
											}
										}
									}
								}
								JOINT finger1-1.L
								{
									OFFSET 0.000927 -0.039280 -0.005363
									CHANNELS 3 Xrotation Yrotation Zrotation
									JOINT finger1-2.L
									{
										OFFSET -0.018386 -0.018805 -0.006895
										CHANNELS 3 Xrotation Yrotation Zrotation
										JOINT finger1-3.L
										{
											OFFSET -0.010991 -0.028095 -0.011249
											CHANNELS 3 Xrotation Yrotation Zrotation
											End Site
											{
												OFFSET -0.004839 -0.019091 -0.014527
											}
										}
									}
								}
							}
						}
					}
				}
			}
		}
	}
	JOINT upperleg01.R
	{
		OFFSET -0.087495 -0.048056 0.004242
		CHANNELS 6 Xposition Yposition Zposition Xrotation Yrotation Zrotation
		JOINT lowerleg01.R
		{
			OFFSET -0.034522 -0.027831 -0.333803
			CHANNELS 6 Xposition Yposition Zposition Xrotation Yrotation Zrotation
			JOINT foot.R
			{
				OFFSET -0.037458 0.009412 -0.349633
				CHANNELS 3 Xrotation Yrotation Zrotation
				JOINT toe1-1.R
				{
					OFFSET -0.003290 -0.101211 -0.050981
					CHANNELS 6 Xposition Yposition Zposition Xrotation Yrotation Zrotation
					End Site
					{
						OFFSET 0.000524 -0.066142 0.003009
					}
				}
			}
		}
	}
	JOINT upperleg01.L
	{
		OFFSET 0.087495 -0.048056 0.004242
		CHANNELS 6 Xposition Yposition Zposition Xrotation Yrotation Zrotation
		JOINT lowerleg01.L
		{
			OFFSET 0.034522 -0.027831 -0.333803
			CHANNELS 6 Xposition Yposition Zposition Xrotation Yrotation Zrotation
			JOINT foot.L
			{
				OFFSET 0.037458 0.009413 -0.349633
				CHANNELS 3 Xrotation Yrotation Zrotation
				JOINT toe1-1.L
				{
					OFFSET 0.003290 -0.101211 -0.050981
					CHANNELS 6 Xposition Yposition Zposition Xrotation Yrotation Zrotation
					End Site
					{
						OFFSET -0.000524 -0.066142 0.003009
					}
				}
			}
		}
	}
}
MOTION
Frames: 4
Frame Time:	0.016667
0.6459 0.036 0.7237 -9.6026 1.3127 -162.0602 -0.0003 -0.0361 0.0731 2.5488 0.656 0.9711 -0.0004 -0.0024 0.0975 2.3618 -1.2572 1.0304 0 0 0 0 -0.0433 0.1618 15.3094 2.2653 7.358 -15.4134 -1.2013 4.8517 0 -0.0436 0.0633 0 0 0 3.8285 0.0533 1.5619 0 0 0 3.8117 0.068 2.0126 0 0 0 -0.0184 -0.0584 0.1071 0.3683 -4.6077 -2.298 -0.1356 -0.0037 -0.0169 18.2409 -17.6987 11.9757 -0.1336 0.0017 -0.1531 -4.2064 5.2006 27.1086 -0.1086 -0.1548 -0.1037 12.3285 37.3843 -13.9956 44.1841 -24.3978 34.3269 46.992 -17.7534 40.2582 53.1105 -16.8594 44.8142 -3.8305 -1.3754 -0.6053 14.2977 -18.136 9.5781 4.6878 -8.9764 0.3006 27.1117 -36.5336 34.7616 49.8403 -42.5429 44.6437 46.8764 -43.2864 44.7639 -11.2434 -11.7273 4.9931 10.2839 -19.7207 1.9273 10.3534 -21.1972 3.1122 -4.5015 -32.1309 -36.3576 16.0449 15.5155 -40.5462 10.5569 22.6988 -51.9585 0.0184 -0.0584 0.1071 -0.547 3.3176 -2.7941 0.1356 -0.0037 -0.0169 17.8944 21.0249 -13.9852 0.1336 0.0017 -0.1531 -9.4362 5.5974 -29.0469 0.1085 -0.1547 -0.1037 3.8375 -49.8183 -0.9247 42.2961 24.0028 -31.7277 46.7959 17.303 -40.4675 51.3583 16.7132 -43.6914 17.2912 23.3449 -23.2896 37.2089 30.6321 -34.4889 34.0791 30.1232 -32.4114 31.6262 38.076 -39.0865 54.2314 43.0702 -49.3148 52.1181 43.968 -50.2419 11.1399 37.4843 -22.6536 31.4036 42.1805 -23.1835 37.0087 45.4308 -29.8701 0.236 26.5853 33.5777 20.0309 -14.3956 39.8642 14.0503 -20.2544 51.6687 -0.0875 -0.0481 0.0042 -17.0528 -0.1188 -23.9944 -0.0345 -0.0278 -0.3338 15.8825 3.5637 -2.0974 -10.8546 0.8024 -9.8839 -0.0033 -0.1012 -0.051 -0.0085 0 0 0.0875 -0.0481 0.0042 -15.1972 0.8637 7.094 0.0345 -0.0279 -0.3341 -6.2378 0.2457 -0.6501 22.3584 -3.4332 5.7341 0.0033 -0.1012 -0.051 -8.3601 -0.2053 -0.0609 
0.6492 0.0353 0.7242 -9.8102 1.5694 -161.9773 -0.0003 -0.0361 0.0731 2.4983 0.5446 0.9487 -0.0004 -0.0024 0.0975 2.3227 -1.2052 1.0117 0 0 0 0 -0.0433 0.1618 15.312 2.4045 7.9114 -16.745 -0.2766 4.5198 0 -0.0436 0.0633 0 0 0 4.0669 0.0574 1.5775 0 0 0 4.049 0.0729 2.0269 0 0 0 -0.0184 -0.0584 0.1071 0.3756 -4.608 -2.343 -0.1356 -0.0037 -0.0169 18.165 -17.7395 11.1437 -0.1336 0.0017 -0.1531 -5.0055 4.6747 27.2525 -0.1086 -0.1548 -0.1037 12.7809 36.0469 -16.2703 44.6766 -24.3992 34.87 47.3914 -17.7218 40.6326 53.5922 -16.7822 45.2653 -3.8293 -1.3772 -0.6039 14.2992 -18.1374 9.5799 4.6951 -8.9859 0.3089 27.1181 -36.5364 34.7676 49.8467 -42.5442 44.6503 46.8849 -43.2881 44.7725 -11.246 -11.7274 4.9931 10.2825 -19.7182 1.9259 10.3493 -21.1904 3.1081 -4.5014 -32.1308 -36.3579 16.0453 15.5156 -40.547 10.5575 22.6991 -51.9596 0.0184 -0.0584 0.1071 -0.557 3.3182 -2.8234 0.1356 -0.0037 -0.0169 18.2108 20.8923 -14.495 0.1336 0.0017 -0.1531 -9.5201 5.6711 -30.1366 0.1085 -0.1547 -0.1037 3.2432 -50.4358 -1.9934 42.2959 24.0029 -31.7277 46.7959 17.303 -40.4675 51.3571 16.7133 -43.6902 17.2791 23.3383 -23.2778 37.1969 30.6286 -34.4761 34.0632 30.118 -32.3946 31.6262 38.076 -39.0865 54.2314 43.0702 -49.3147 52.1182 43.968 -50.2419 11.1311 37.4781 -22.6462 31.3952 42.1752 -23.1751 36.996 45.4249 -29.8575 0.2361 26.5853 33.5777 20.0309 -14.3956 39.8642 14.0503 -20.2544 51.6687 -0.0875 -0.0481 0.0042 -17.3398 -0.0292 -23.9381 -0.0345 -0.0278 -0.3338 15.982 3.534 -2.1084 -10.9015 1.202 -9.9373 -0.0033 -0.1012 -0.051 -0.0043 0 0 0.0875 -0.0481 0.0042 -15.6072 0.8882 7.0125 0.0346 -0.0279 -0.3341 -6.2378 0.2457 -0.6501 23.9914 -2.6289 5.7802 0.0033 -0.1012 -0.051 -9.4935 -0.1632 -0.1752 
0.6516 0.0349 0.7244 -9.9028 1.798 -161.8935 -0.0003 -0.0361 0.0731 2.5066 0.4294 0.9256 -0.0004 -0.0024 0.0975 2.2988 -1.129 0.9917 0 0 0 0 -0.0433 0.1618 15.3094 2.5013 8.3096 -17.7784 0.4378 4.3182 0 -0.0436 0.0633 0 0 0 4.2582 0.0602 1.5871 0 0 0 4.2394 0.0765 2.0355 0 0 0 -0.0184 -0.0584 0.1071 0.3826 -4.6084 -2.3855 -0.1356 -0.0037 -0.0169 18.1603 -17.6759 10.4785 -0.1336 0.0017 -0.1531 -5.6938 4.1651 27.4229 -0.1086 -0.1548 -0.1037 12.9219 34.8666 -18.0088 45.6058 -24.3924 35.9014 48.1472 -17.6552 41.341 54.501 -16.6263 46.1161 -3.8268 -1.3808 -0.6013 14.3023 -18.1401 9.5832 4.7097 -9.0049 0.3255 27.1272 -36.5404 34.7763 49.8558 -42.546 44.6597 46.8974 -43.2907 44.7852 -11.2513 -11.7273 4.993 10.2795 -19.713 1.9229 10.3411 -21.1771 3.0999 -4.5012 -32.1307 -36.3582 16.0458 15.5159 -40.5481 10.5583 22.6994 -51.961 0.0184 -0.0584 0.1071 -0.5638 3.3186 -2.8412 0.1356 -0.0037 -0.0169 18.4907 20.807 -14.8732 0.1336 0.0017 -0.1531 -9.5765 5.7256 -31.0009 0.1085 -0.1547 -0.1037 2.8873 -50.8871 -2.742 42.2956 24.0031 -31.7279 46.796 17.303 -40.4676 51.3548 16.7136 -43.688 17.1454 23.2645 -23.1464 37.0595 30.5888 -34.3301 33.92 30.0707 -32.243 31.6262 38.076 -39.0865 54.2314 43.0702 -49.3147 52.1182 43.968 -50.2419 11.1153 37.467 -22.6329 31.38 42.1657 -23.1599 36.9726 45.414 -29.8342 0.236 26.5853 33.5778 20.0309 -14.3957 39.8642 14.0503 -20.2544 51.6687 -0.0875 -0.0481 0.0042 -17.512 0.0775 -23.915 -0.0345 -0.0278 -0.3338 16.1277 3.5241 -2.1278 -10.991 1.4544 -9.9737 -0.0033 -0.1012 -0.051 -0.0022 0 0 0.0875 -0.0481 0.0042 -15.828 0.9297 6.968 0.0346 -0.0279 -0.3341 -6.2378 0.2457 -0.6501 25.0583 -1.9931 5.7889 0.0033 -0.1012 -0.051 -10.1876 -0.1174 -0.2762 
0.6541 0.0345 0.7247 -10.0033 2.0737 -161.7746 -0.0003 -0.0361 0.0731 2.4903 0.2996 0.8945 -0.0004 -0.0024 0.0975 2.279 -1.0439 0.9639 0 0 0 0 -0.0434 0.1618 15.3049 2.6022 8.7387 -19.0803 1.2348 4.1851 0 -0.0436 0.0633 0 0 0 4.5108 0.0638 1.5855 0.0001 0 0 4.491 0.081 2.033 0 0 0.0001 -0.0184 -0.0584 0.1071 0.3911 -4.6089 -2.4462 -0.1356 -0.0037 -0.0169 18.2706 -17.3528 9.6907 -0.1336 0.0017 -0.1531 -6.8016 3.363 28.0057 -0.1086 -0.1548 -0.1037 13.2096 33.0021 -20.2148 46.4069 -24.3741 36.7898 48.7981 -17.5905 41.951 55.2807 -16.4817 46.8458 -3.8248 -1.3838 -0.5991 14.3047 -18.1424 9.586 4.7238 -9.0232 0.3416 27.1932 -36.5682 34.8372 49.921 -42.5591 44.7268 46.9769 -43.3071 44.8658 -11.2569 -11.726 4.9925 10.276 -19.707 1.9194 10.3328 -21.1634 3.0916 -4.5012 -32.1306 -36.3584 16.0461 15.516 -40.5488 10.5588 22.6996 -51.9619 0.0184 -0.0584 0.1071 -0.5686 3.3189 -2.8487 0.1356 -0.0037 -0.0169 18.9224 20.8138 -15.277 0.1336 0.0017 -0.1531 -9.5602 5.7617 -31.947 0.1085 -0.1547 -0.1037 2.7895 -51.3444 -3.3316 42.2956 24.0032 -31.7282 46.7962 17.303 -40.4679 51.3527 16.7139 -43.6861 16.8879 23.1211 -22.8935 36.794 30.5109 -34.0479 33.6506 29.9805 -31.9578 31.6262 38.0761 -39.0865 54.2314 43.0702 -49.3148 52.1182 43.968 -50.2419 11.1017 37.4573 -22.6214 31.3669 42.1575 -23.1468 36.9516 45.4042 -29.8132 0.236 26.5853 33.5778 20.0309 -14.3956 39.8642 14.0503 -20.2544 51.6687 -0.0875 -0.0481 0.0042 -17.6516 0.2262 -23.9036 -0.0345 -0.0278 -0.3338 16.2274 3.5082 -2.14 -11.0659 1.7554 -10.0314 -0.0033 -0.1012 -0.051 -0.0011 0 0 0.0875 -0.0481 0.0042 -16.1512 1.0573 7.4418 0.0346 -0.0279 -0.3341 -6.2378 0.2457 -0.6501 26.3771 -0.7852 5.9052 0.0033 -0.1012 -0.051 -11.0467 -0.0008 -0.5001 
